<?xml version="1.0" encoding="utf-8"?>
<!-- Generator: Adobe Illustrator 23.0.3, SVG Export Plug-In . SVG Version: 6.00 Build 0)  -->
<svg version="1.1" id="Calque_1" xmlns="http://www.w3.org/2000/svg" xmlns:xlink="http://www.w3.org/1999/xlink" x="0px" y="0px"
	 viewBox="0 0 32 32" style="enable-background:new 0 0 32 32;" xml:space="preserve">
<style type="text/css">
	.st0{fill:#ffffff;}
</style>
<g>
	<path class="st0" d="M1.49,30.51v-6.13c0-4.36,3.54-7.9,7.9-7.9h13.23c4.36,0,7.9,3.54,7.9,7.9v6.13H1.49z"/>
	<path d="M22.61,16.97c4.09,0,7.41,3.33,7.41,7.41v5.64H1.97v-5.64c0-4.09,3.33-7.41,7.41-7.41H22.61 M22.61,16H9.39
		C4.75,16,1,19.75,1,24.39V31h30v-6.61C31,19.75,27.25,16,22.61,16L22.61,16z"/>
</g>
<g>
	<circle class="st0" cx="16" cy="8" r="5.48"/>
	<path d="M16,3.04c2.74,0,4.96,2.23,4.96,4.96s-2.23,4.96-4.96,4.96S11.04,10.74,11.04,8S13.26,3.04,16,3.04 M16,2
		c-3.31,0-6,2.69-6,6s2.69,6,6,6s6-2.69,6-6S19.31,2,16,2L16,2z"/>
</g>
</svg>
